<svg xmlns="http://www.w3.org/2000/svg" xmlns:xlink="http://www.w3.org/1999/xlink" viewBox="0,0,256,256" width="40px" height="40px" fill-rule="nonzero"><g fill="#030303" fill-rule="nonzero" stroke="none" stroke-width="1" stroke-linecap="butt" stroke-linejoin="miter" stroke-miterlimit="10" stroke-dasharray="" stroke-dashoffset="0" font-family="none" font-weight="none" font-size="none" text-anchor="none" style="mix-blend-mode: normal"><path d="M0,256v-256h256v256z" id="bgRectangle"></path></g><g fill="#7056ed" fill-rule="nonzero" stroke="none" stroke-width="1" stroke-linecap="butt" stroke-linejoin="miter" stroke-miterlimit="10" stroke-dasharray="" stroke-dashoffset="0" font-family="none" font-weight="none" font-size="none" text-anchor="none" style="mix-blend-mode: normal"><g transform="scale(6.4,6.4)"><path d="M23.596,2.871v4.444c5.533,1.566 9.589,6.65 9.589,12.684c0,7.282 -5.903,13.185 -13.185,13.185c-7.282,0 -13.185,-5.902 -13.185,-13.184c0,-4.897 2.671,-9.168 6.635,-11.44l3.05,3.05v-9.11h-9.11l2.935,2.935c-4.711,3.135 -7.825,8.481 -7.825,14.565c0,9.665 7.835,17.5 17.5,17.5c9.665,0 17.5,-7.835 17.5,-17.5c0,-8.432 -5.964,-15.47 -13.904,-17.129z"></path><path d="M20,37.986c-9.918,0 -17.987,-8.068 -17.987,-17.986c0,-5.826 2.813,-11.252 7.555,-14.634l-3.352,-3.352h10.771v10.771l-3.614,-3.613c-3.754,2.3 -6.071,6.415 -6.071,10.828c0,7.002 5.696,12.698 12.698,12.698c7.002,0 12.698,-5.696 12.698,-12.698c0,-5.654 -3.797,-10.678 -9.235,-12.216l-0.354,-0.101v-5.411l0.586,0.122c8.281,1.731 14.292,9.135 14.292,17.606c0,9.918 -8.069,17.986 -17.987,17.986zM8.565,2.986l2.524,2.525l-0.495,0.329c-4.763,3.171 -7.607,8.464 -7.607,14.16c0,9.381 7.632,17.014 17.013,17.014c9.381,0 17.013,-7.633 17.013,-17.014c0,-7.811 -5.403,-14.663 -12.931,-16.52v3.472c5.665,1.771 9.589,7.083 9.589,13.048c0,7.538 -6.133,13.671 -13.672,13.671c-7.539,0 -13.671,-6.133 -13.671,-13.671c0,-4.885 2.636,-9.43 6.88,-11.862l0.323,-0.186l2.482,2.482v-7.448z"></path></g></g></svg>